<svg width="20" height="20" viewBox="0 0 20 20" fill="none" xmlns="http://www.w3.org/2000/svg">
<g id="briefcase">
<path id="Briefcase" d="M15.4842 5.66345C16.5196 5.66345 17.359 6.5261 17.3592 7.59021V8.42615C17.3588 8.96687 17.0288 9.44932 16.534 9.63318L10.534 11.8754C10.0857 12.0436 9.59192 12.0294 9.15316 11.8363L5.24007 10.1088C4.92278 9.96855 4.77578 9.59028 4.91195 9.26404C5.04829 8.93765 5.41665 8.78699 5.73421 8.92712L9.65316 10.6547C9.79977 10.7137 9.96261 10.7137 10.1092 10.6547L16.1092 8.42615V7.59021C16.109 7.23564 15.8293 6.94861 15.4842 6.94861H4.23421C3.88917 6.94861 3.60943 7.23564 3.60921 7.59021V14.6566C3.60922 15.0114 3.88904 15.2992 4.23421 15.2992H15.4842C15.8294 15.2992 16.1092 15.0114 16.1092 14.6566V11.4447C16.1093 11.09 16.3891 10.8021 16.7342 10.8021C17.0794 10.8021 17.3592 11.09 17.3592 11.4447V14.6566C17.3592 15.7209 16.5197 16.5834 15.4842 16.5834H4.23421C3.19868 16.5834 2.35922 15.7209 2.35921 14.6566V7.59021C2.35943 6.52611 3.19882 5.66346 4.23421 5.66345H15.4842ZM12.3592 3.09412C12.7044 3.09412 12.9842 3.38193 12.9842 3.73669C12.9841 4.09136 12.7043 4.37927 12.3592 4.37927H7.35921C7.01431 4.37902 6.73433 4.0912 6.73421 3.73669C6.73421 3.38208 7.01424 3.09437 7.35921 3.09412H12.3592Z" fill="#89898C"/>
</g>
</svg>
